<svg width="100" height="100" viewBox="0 0 100 100" fill="none" xmlns="http://www.w3.org/2000/svg">
<path d="M44.2398 21.1306H37.4302V36.4524H44.2398V21.1306Z" fill="#F93C00"/>
<path d="M63.8097 21.1306H57V36.4524H63.8097V21.1306Z" fill="#F93C00"/>
<path d="M83.7995 35.6567H17.4053V81.3411H83.7995V35.6567Z" fill="#F93C00" fillOpacity="0.3" stroke="black" strokeWidth="4.25604" strokeLinecap="round" strokeLinejoin="round"/>
<path d="M29.0737 72.4373H69.3614" stroke="black" strokeWidth="4.25604" strokeLinecap="round" strokeLinejoin="round"/>
<path d="M83.9526 45.4291L95.0609 28.6858" stroke="black" strokeWidth="4.25604" strokeLinecap="round" strokeLinejoin="round"/>
<path d="M95.5395 32.3769C97.9935 32.3769 99.9828 30.3875 99.9828 27.9335C99.9828 25.4796 97.9935 23.4902 95.5395 23.4902C93.0855 23.4902 91.0962 25.4796 91.0962 27.9335C91.0962 30.3875 93.0855 32.3769 95.5395 32.3769Z" fill="black"/>
<path d="M16.0223 44.5848L4.91406 27.8416" stroke="black" strokeWidth="4.25604" strokeLinecap="round" strokeLinejoin="round"/>
<path d="M4.44331 31.5111C6.89728 31.5111 8.88662 29.5218 8.88662 27.0678C8.88662 24.6138 6.89728 22.6245 4.44331 22.6245C1.98934 22.6245 0 24.6138 0 27.0678C0 29.5218 1.98934 31.5111 4.44331 31.5111Z" fill="black"/>
<path d="M91.9773 47.4551H83.8228V70.293H91.9773V47.4551Z" fill="black"/>
<path d="M17.074 46.416H8.91943V69.2539H17.074V46.416Z" fill="black"/>
<path d="M63.3335 45.5808C67.1246 45.5811 70.1978 48.6549 70.1978 52.446C70.1975 56.237 67.1244 59.31 63.3335 59.3103C59.5423 59.3103 56.4685 56.2371 56.4683 52.446C56.4683 48.6547 59.5422 45.5808 63.3335 45.5808Z" fill="#FF8246" stroke="black" strokeWidth="1.96674"/>
<path d="M35.752 46.7305C39.543 46.7307 42.6162 49.8046 42.6162 53.5957C42.6159 57.3866 39.5429 60.4597 35.752 60.46C31.9608 60.46 28.887 57.3868 28.8867 53.5957C28.8867 49.8044 31.9606 46.7305 35.752 46.7305Z" fill="#FF8246" stroke="black" strokeWidth="1.96674"/>
<path d="M35.7695 52.1389C36.584 52.1389 37.2449 52.7991 37.2451 53.6135C37.2451 54.4282 36.5842 55.0891 35.7695 55.0891C34.9551 55.0889 34.2949 54.428 34.2949 53.6135C34.2951 52.7992 34.9552 52.1391 35.7695 52.1389Z" fill="#F93C00" stroke="black" strokeWidth="1.96674"/>
<path d="M63.3042 52.1389C64.1187 52.1389 64.7796 52.7991 64.7798 53.6135C64.7798 54.4282 64.1189 55.0891 63.3042 55.0891C62.4897 55.0889 61.8296 54.428 61.8296 53.6135C61.8298 52.7992 62.4899 52.1391 63.3042 52.1389Z" fill="#F93C00" stroke="black" strokeWidth="1.96674"/>
<path d="M29.5312 39.2937L44.2218 47.7753" stroke="black" strokeWidth="1.96674" strokeLinecap="round"/>
<path d="M55.7266 44.5005L72.1117 40.1101" stroke="black" strokeWidth="1.96674" strokeLinecap="round"/>
</svg>
